<?xml version="1.0" encoding="UTF-8"?>
<!-- Generator: Adobe Illustrator 19.1.0, SVG Export Plug-In . SVG Version: 6.00 Build 0)  -->
<svg xmlns="http://www.w3.org/2000/svg" xmlns:xlink="http://www.w3.org/1999/xlink" xmlns:dc="http://purl.org/dc/elements/1.1/" xmlns:cc="http://creativecommons.org/ns#" xmlns:rdf="http://www.w3.org/1999/02/22-rdf-syntax-ns#" version="1.1" id="DESIGNS" x="0px" y="0px" width="32px" height="32px" viewBox="0 0 32 32" style="enable-background:new 0 0 32 32;" xml:space="preserve">
<title property="dc:title">to erase</title><desc property="dc:description">An icon for "erase" from the Bent Blocks series on to [icon]. Downloaded from http://www.toicon.com/icons/bent-blocks_erase by 195.114.237.78 on 2021-01-14. Licensed CC-BY, see http://toicon.com/license/ for details.</desc>
<path class="bentblocks_een" d="M23.031,25.622l4.414-4.517c0.741-0.758,0.741-1.998,0-2.756L13.98,4.568  c-0.74-0.758-1.952-0.758-2.693,0l-6.732,6.89c-0.74,0.758-0.74,1.998,0,2.756l11.146,11.407c0.129,0.132,0.285,0.257,0.452,0.378H4  v2h24v-2h-5.421C22.745,25.879,22.902,25.754,23.031,25.622z M16.219,23.396l-4.314-4.415l6.732-6.89l4.314,4.415L16.219,23.396z   M21.684,24.244c-0.383,0.392-1.362,0.807-1.904,0.807h-0.828c-0.323,0-0.792-0.154-1.207-0.356l6.604-6.759l1.749,1.79  L21.684,24.244z M12.629,5.949c0,0,0.002-0.001,0.005-0.001V5.946l4.605,4.713l-6.732,6.89l-4.605-4.713L12.629,5.949z" style="fill: #0B1719;"/>
<metadata><work rdf:about=""><format>image/svg+xml</format><type rdf:resource="http://purl.org/dc/dcmitype/StillImage"/><license rdf:resource="http://creativecommons.org/licenses/by/4.0/"/><attributionname>Jo Szczepanska</attributionname><attributionurl>http://www.toicon.com/icons/bent-blocks_erase</attributionurl></work></metadata></svg>
