<?xml version="1.0" encoding="UTF-8"?>
<!-- Generator: Adobe Illustrator 19.1.0, SVG Export Plug-In . SVG Version: 6.00 Build 0)  -->
<svg xmlns="http://www.w3.org/2000/svg" xmlns:xlink="http://www.w3.org/1999/xlink" xmlns:dc="http://purl.org/dc/elements/1.1/" xmlns:cc="http://creativecommons.org/ns#" xmlns:rdf="http://www.w3.org/1999/02/22-rdf-syntax-ns#" version="1.1" id="DESIGNS" x="0px" y="0px" width="32px" height="32px" viewBox="0 0 32 32" style="enable-background:new 0 0 32 32;" xml:space="preserve">
<title property="dc:title">to crop</title><desc property="dc:description">An icon for "crop" from the Bent Blocks series on to [icon]. Downloaded from http://www.toicon.com/icons/bent-blocks_crop by 195.114.237.78 on 2021-01-14. Licensed CC-BY, see http://toicon.com/license/ for details.</desc>
<path class="bentblocks_een" d="M8,20v4h4v2H6v-6H8 M10,18H4v4v6h10v-6h-4V18L10,18z M26,6v6h-2V8h-4V6H26 M28,4H18v6h4v4h6v-4V4  L28,4z M8,14H6v2h2V14z M8,10H6v2h2V10z M8,6H6v2h2V6z M12,6h-2v2h2V6z M16,6h-2v2h2V6z M24,18h2v-2h-2V18z M24,22h2v-2h-2V22z   M24,26h2v-2h-2V26z M20,26h2v-2h-2V26z M16,26h2v-2h-2V26z" style="fill: #0B1719;"/>
<metadata><work rdf:about=""><format>image/svg+xml</format><type rdf:resource="http://purl.org/dc/dcmitype/StillImage"/><license rdf:resource="http://creativecommons.org/licenses/by/4.0/"/><attributionname>Jo Szczepanska</attributionname><attributionurl>http://www.toicon.com/icons/bent-blocks_crop</attributionurl></work></metadata></svg>
