<?xml version="1.0" encoding="UTF-8"?>
<!-- Generator: Adobe Illustrator 19.1.0, SVG Export Plug-In . SVG Version: 6.00 Build 0)  -->
<svg xmlns="http://www.w3.org/2000/svg" xmlns:xlink="http://www.w3.org/1999/xlink" xmlns:dc="http://purl.org/dc/elements/1.1/" xmlns:cc="http://creativecommons.org/ns#" xmlns:rdf="http://www.w3.org/1999/02/22-rdf-syntax-ns#" version="1.1" id="DESIGNS" x="0px" y="0px" width="32px" height="32px" viewBox="0 0 32 32" style="enable-background:new 0 0 32 32;" xml:space="preserve">
<title property="dc:title">to live</title><desc property="dc:description">An icon for "live" from the Blueprint series on to [icon]. Downloaded from http://www.toicon.com/icons/blueprint_live by 195.114.237.78 on 2021-01-14. Licensed CC-BY, see http://toicon.com/license/ for details.</desc>
<path class="blueprint_een" d="M30,3H2C1.448,3,1,3.448,1,4v24c0,0.552,0.448,1,1,1h28c0.552,0,1-0.448,1-1V4  C31,3.448,30.552,3,30,3z M29,27H3V5h26V27z M10.5,17H4v-1h6.109l1.905-7.621c0.111-0.445,0.859-0.445,0.971,0l3.515,14.06  l2.515-10.06c0.111-0.445,0.859-0.445,0.971,0L20.891,16H28v1h-7.5c-0.229,0-0.43-0.156-0.485-0.379l-0.515-2.06l-2.515,10.06  C16.93,24.844,16.729,25,16.5,25s-0.43-0.156-0.485-0.379L12.5,10.562l-1.515,6.06C10.93,16.844,10.729,17,10.5,17z M6,25H4v-1h2V25  z M6,21H4v-1h2V21z M6,13H4v-1h2V13z M6,9H4V8h2V9z M26,24h2v1h-2V24z M26,20h2v1h-2V20z M28,13h-2v-1h2V13z M28,9h-2V8h2V9z" style="fill: #111918;"/>
<metadata><work rdf:about=""><format>image/svg+xml</format><type rdf:resource="http://purl.org/dc/dcmitype/StillImage"/><license rdf:resource="http://creativecommons.org/licenses/by/4.0/"/><attributionname>Shannon E Thomas</attributionname><attributionurl>http://www.toicon.com/icons/blueprint_live</attributionurl></work></metadata></svg>
