<?xml version="1.0" encoding="UTF-8"?>
<!-- Generator: Adobe Illustrator 19.1.0, SVG Export Plug-In . SVG Version: 6.00 Build 0)  -->
<svg xmlns="http://www.w3.org/2000/svg" xmlns:xlink="http://www.w3.org/1999/xlink" xmlns:dc="http://purl.org/dc/elements/1.1/" xmlns:cc="http://creativecommons.org/ns#" xmlns:rdf="http://www.w3.org/1999/02/22-rdf-syntax-ns#" version="1.1" id="DESIGNS" x="0px" y="0px" width="32px" height="32px" viewBox="0 0 32 32" style="enable-background:new 0 0 32 32;" xml:space="preserve">
<title property="dc:title">to guide</title><desc property="dc:description">An icon for "guide" from the Blueprint series on to [icon]. Downloaded from http://www.toicon.com/icons/blueprint_guide by 195.114.237.78 on 2021-01-14. Licensed CC-BY, see http://toicon.com/license/ for details.</desc>
<path class="blueprint_een" d="M31,7h-5V4c0-0.552-0.448-1-1-1H1C0.448,3,0,3.448,0,4v20c0,0.552,0.448,1,1,1h5v3  c0,0.552,0.448,1,1,1h24c0.552,0,1-0.448,1-1V8C32,7.448,31.552,7,31,7z M2,23V5h22v11h-1v1h1v6H2z M8,24h11.966L8,26.452V24z   M30,27H10.31L25,24v-3h1v-1h-1V9h5V27z M11,16h2v1h-2V16z M14,16h2v1h-2V16z M17,16h2v1h-2V16z M20,16h2v1h-2V16z M29,21h-2v-1h2  V21z M8.707,16H10v1H8.707l1.146,1.146l-0.707,0.707L7.5,17.207l-1.646,1.646l-0.707-0.707L6.793,16.5l-1.646-1.646l0.707-0.707  L7.5,15.793l1.646-1.646l0.707,0.707L8.707,16z" style="fill: #111918;"/>
<metadata><work rdf:about=""><format>image/svg+xml</format><type rdf:resource="http://purl.org/dc/dcmitype/StillImage"/><license rdf:resource="http://creativecommons.org/licenses/by/4.0/"/><attributionname>Shannon E Thomas</attributionname><attributionurl>http://www.toicon.com/icons/blueprint_guide</attributionurl></work></metadata></svg>
