<?xml version="1.0" encoding="UTF-8"?>
<!-- Generator: Adobe Illustrator 19.1.0, SVG Export Plug-In . SVG Version: 6.00 Build 0)  -->
<svg xmlns="http://www.w3.org/2000/svg" xmlns:xlink="http://www.w3.org/1999/xlink" xmlns:dc="http://purl.org/dc/elements/1.1/" xmlns:cc="http://creativecommons.org/ns#" xmlns:rdf="http://www.w3.org/1999/02/22-rdf-syntax-ns#" version="1.1" id="DESIGNS" x="0px" y="0px" width="32px" height="32px" viewBox="0 0 32 32" style="enable-background:new 0 0 32 32;" xml:space="preserve">
<title property="dc:title">to lock</title><desc property="dc:description">An icon for "lock" from the Pictogram series on to [icon]. Downloaded from http://www.toicon.com/icons/pictogram_lock by 77.249.109.167 on 2021-01-12. Licensed CC-BY, see http://toicon.com/license/ for details.</desc>
<g>
	<path class="pictogram_vier" d="M32,29c0,1.65-1.35,3-3,3H3c-1.65,0-3-1.35-3-3V3c0-1.65,1.35-3,3-3h26c1.65,0,3,1.35,3,3V29z" style="fill: #E54D2E;"/>
	<path class="pictogram_twee" d="M14,26v-2c0-0.179,0.031-0.349,0.076-0.514C12.844,22.805,12,21.508,12,20c0-2.209,1.791-4,4-4v-4   c-7.579,0-5.433,0-13,0c-1.65,0-3,1.35-3,3v14c0,1.65,1.35,3,3,3h13v-4C14.9,28,14,27.1,14,26z" style="fill: #F8AD89;"/>
	<path class="pictogram_drie" d="M20,20c0-2.209-1.791-4-4-4s-4,1.791-4,4c0,1.508,0.844,2.805,2.076,3.486   C14.031,23.651,14,23.821,14,24v2c0,1.1,0.9,2,2,2s2-0.9,2-2v-2c0-0.179-0.031-0.349-0.076-0.514C19.156,22.805,20,21.508,20,20z" style="fill: #F27261;"/>
	<path class="pictogram_een" d="M29,12h-2V4.689C27,2.655,25.317,1,23.25,1H9.75C7.683,1,6,2.655,6,4.689V12h3V4.689   C9,4.31,9.337,4,9.75,4h13.5C23.663,4,24,4.31,24,4.689V12h-8v4c2.209,0,4,1.791,4,4c0,1.508-0.844,2.805-2.076,3.486   C17.969,23.651,18,23.821,18,24v2c0,1.1-0.9,2-2,2v4h13c1.65,0,3-1.35,3-3V15C32,13.35,30.65,12,29,12z" style="fill: #F4D6B0;"/>
</g>
<metadata><work rdf:about=""><format>image/svg+xml</format><type rdf:resource="http://purl.org/dc/dcmitype/StillImage"/><license rdf:resource="http://creativecommons.org/licenses/by/4.0/"/><attributionname>Jo Szczepanska</attributionname><attributionurl>http://www.toicon.com/icons/pictogram_lock</attributionurl></work></metadata></svg>
